<svg width="45" height="42" viewBox="0 0 45 42" fill="none" xmlns="http://www.w3.org/2000/svg">
<path d="M21.1097 0.84443C21.885 0.0947384 23.115 0.0947385 23.8903 0.84443L32.3251 9.001C32.4599 9.13126 32.6122 9.24194 32.7777 9.3298L43.1416 14.8313C44.0941 15.337 44.4743 16.5068 44.0008 17.4758L38.85 28.0183C38.7677 28.1867 38.7095 28.3658 38.6771 28.5504L36.6475 40.107C36.4609 41.1692 35.4658 41.8923 34.3979 41.7414L22.7797 40.1005C22.5942 40.0743 22.4058 40.0743 22.2203 40.1005L10.6021 41.7414C9.53419 41.8923 8.53906 41.1692 8.35251 40.107L6.32289 28.5504C6.29047 28.3658 6.23228 28.1867 6.15002 28.0183L0.999175 17.4758C0.525747 16.5068 0.905856 15.337 1.85843 14.8313L12.2223 9.3298C12.3878 9.24194 12.5402 9.13126 12.6749 9.001L21.1097 0.84443Z" fill="#2D81E4"/>
</svg>
